<svg xmlns="http://www.w3.org/2000/svg" xmlns:xlink="http://www.w3.org/1999/xlink" viewBox="0 0 227.8 265.56"><defs><style>.cls-1{fill:url(#Earthtone_4);}.cls-2{fill:url(#Earthtone_4-2);}.cls-3{fill:url(#linear-gradient);}.cls-4{fill:url(#linear-gradient-2);}.cls-5{fill:url(#linear-gradient-3);}.cls-6{fill:url(#linear-gradient-4);}.cls-7{fill:url(#linear-gradient-5);}.cls-8{fill:url(#linear-gradient-6);}.cls-9{fill:url(#linear-gradient-7);}.cls-10{fill:url(#linear-gradient-8);}.cls-11{fill:url(#linear-gradient-9);}.cls-12{fill:url(#linear-gradient-10);}</style><linearGradient id="Earthtone_4" x1="131.32" y1="117.34" x2="181.06" y2="117.34" gradientUnits="userSpaceOnUse"><stop offset="0" stop-color="#e5ca9b"/><stop offset="0.5" stop-color="#e0bf86"/><stop offset="1" stop-color="#d09f43"/></linearGradient><linearGradient id="Earthtone_4-2" x1="0.29" y1="113.62" x2="227.51" y2="113.62" xlink:href="#Earthtone_4"/><linearGradient id="linear-gradient" x1="3.98" y1="257.66" x2="3.98" y2="265.47" gradientUnits="userSpaceOnUse"><stop offset="0" stop-color="#d09f43"/><stop offset="0.5" stop-color="#e0bf86"/><stop offset="1" stop-color="#d09f43"/></linearGradient><linearGradient id="linear-gradient-2" x1="26.29" y1="257.66" x2="26.29" y2="265.47" xlink:href="#linear-gradient"/><linearGradient id="linear-gradient-3" x1="48.79" y1="257.66" x2="48.79" y2="265.47" xlink:href="#linear-gradient"/><linearGradient id="linear-gradient-4" x1="72.23" y1="257.66" x2="72.23" y2="265.56" xlink:href="#linear-gradient"/><linearGradient id="linear-gradient-5" x1="94.61" y1="257.58" x2="94.61" y2="265.56" xlink:href="#linear-gradient"/><linearGradient id="linear-gradient-6" x1="134.2" y1="257.58" x2="134.2" y2="265.56" xlink:href="#linear-gradient"/><linearGradient id="linear-gradient-7" x1="157.03" y1="257.66" x2="157.03" y2="265.47" xlink:href="#linear-gradient"/><linearGradient id="linear-gradient-8" x1="178.85" y1="257.58" x2="178.85" y2="265.56" xlink:href="#linear-gradient"/><linearGradient id="linear-gradient-9" x1="202.43" y1="257.66" x2="202.43" y2="265.47" xlink:href="#linear-gradient"/><linearGradient id="linear-gradient-10" x1="224.15" y1="257.66" x2="224.15" y2="265.47" xlink:href="#linear-gradient"/></defs><title>VG-logo</title><g id="Layer_2" data-name="Layer 2"><g id="Layer_1-2" data-name="Layer 1"><polygon class="cls-1" points="134.11 179.62 181.06 56.88 176.27 55.05 131.32 172.6 134.11 179.62"/><path class="cls-2" d="M227.45,110H172.73v6.39h48.72a107.6,107.6,0,0,1-103.22,104.8l7.68-20.06,2-5.22.19-.46-2.81-7L58.71,21.2A107.65,107.65,0,0,1,215.64,78.44h6.31a113.67,113.67,0,1,0,5.56,35.17C227.51,112.39,227.49,111.16,227.45,110ZM6.26,113.61A107.28,107.28,0,0,1,38.1,37.2l73.27,184A107.62,107.62,0,0,1,6.26,113.61ZM42.12,33.43A108.12,108.12,0,0,1,54.31,24l68.27,171.46-7.81,20.41Z"/><path class="cls-3" d="M8,257.66l-3.42,7.81H3.44L0,257.66H1.2L4,264.08l2.84-6.41Z"/><path class="cls-4" d="M29.12,264.5v1H23.46v-7.81H29v1h-4.4V261h3.92V262H24.57v2.52Z"/><path class="cls-5" d="M52.15,257.66v7.81h-.92l-4.69-5.82v5.82H45.43v-7.81h.91L51,263.49v-5.82Z"/><path class="cls-6" d="M69.8,264.67a3.53,3.53,0,0,1-.87-2.57v-4.44H70v4.39q0,2.51,2.2,2.51a2.11,2.11,0,0,0,1.64-.62,2.71,2.71,0,0,0,.57-1.89v-4.39h1.08v4.44a3.52,3.52,0,0,1-.87,2.57,3.77,3.77,0,0,1-4.86,0Z"/><path class="cls-7" d="M92.89,265.29a3.48,3.48,0,0,1-1.29-.71l.41-.87a3.43,3.43,0,0,0,1.14.65,4.22,4.22,0,0,0,1.43.25,2.58,2.58,0,0,0,1.45-.33,1,1,0,0,0,.48-.87.87.87,0,0,0-.26-.65,1.76,1.76,0,0,0-.65-.38c-.26-.09-.62-.19-1.09-.3a11.17,11.17,0,0,1-1.42-.42,2.35,2.35,0,0,1-.93-.65,1.74,1.74,0,0,1-.38-1.19,2,2,0,0,1,.33-1.13,2.26,2.26,0,0,1,1-.8,4,4,0,0,1,1.66-.3,5.28,5.28,0,0,1,1.36.18,3.66,3.66,0,0,1,1.15.51l-.37.89a4,4,0,0,0-1-.47,3.93,3.93,0,0,0-1.09-.16,2.41,2.41,0,0,0-1.42.35,1.06,1.06,0,0,0-.47.89.86.86,0,0,0,.27.65,1.86,1.86,0,0,0,.66.39,10.25,10.25,0,0,0,1.08.3,11.2,11.2,0,0,1,1.42.42,2.4,2.4,0,0,1,.92.65,1.7,1.7,0,0,1,.38,1.17,2,2,0,0,1-.33,1.12,2.22,2.22,0,0,1-1,.8,4.19,4.19,0,0,1-1.67.3A5.3,5.3,0,0,1,92.89,265.29Z"/><path class="cls-8" d="M136.66,261.52h1.07v3a4.13,4.13,0,0,1-1.35.74,5,5,0,0,1-1.61.26,4.37,4.37,0,0,1-2.13-.52,3.82,3.82,0,0,1-1.49-1.43,4.15,4.15,0,0,1,0-4.1,3.77,3.77,0,0,1,1.49-1.43,4.46,4.46,0,0,1,2.15-.51,4.54,4.54,0,0,1,1.7.31,3.47,3.47,0,0,1,1.3.9l-.69.69a3.15,3.15,0,0,0-2.26-.9,3.3,3.3,0,0,0-1.6.38,2.82,2.82,0,0,0-1.11,1.07,3.15,3.15,0,0,0,0,3.08,2.87,2.87,0,0,0,1.11,1.08,3.23,3.23,0,0,0,1.59.39,3.3,3.3,0,0,0,1.83-.5Z"/><path class="cls-9" d="M154.36,257.66h1.11v6.84h4.23v1h-5.34Z"/><path class="cls-10" d="M176.74,265a3.81,3.81,0,0,1-1.49-1.43,4.12,4.12,0,0,1,0-4.08,3.81,3.81,0,0,1,1.49-1.43,4.62,4.62,0,0,1,4.25,0,3.8,3.8,0,0,1,1.48,1.43,4.18,4.18,0,0,1,0,4.09A3.8,3.8,0,0,1,181,265a4.62,4.62,0,0,1-4.25,0Zm3.67-.87a2.87,2.87,0,0,0,1.08-1.08,3.18,3.18,0,0,0,0-3.07,2.86,2.86,0,0,0-1.08-1.08,3,3,0,0,0-1.54-.39,3.11,3.11,0,0,0-1.56.39,2.84,2.84,0,0,0-1.09,1.08,3.18,3.18,0,0,0,0,3.07,2.85,2.85,0,0,0,1.09,1.08,3.11,3.11,0,0,0,1.56.39A3,3,0,0,0,180.41,264.18Z"/><path class="cls-11" d="M204.43,265.47l-1.68-2.4-.49,0h-1.93v2.38h-1.11v-7.81h3a3.61,3.61,0,0,1,2.39.73,2.46,2.46,0,0,1,.87,2,2.61,2.61,0,0,1-.45,1.54,2.52,2.52,0,0,1-1.27.93l1.85,2.62Zm-.59-3.78a1.59,1.59,0,0,0,.56-1.31,1.58,1.58,0,0,0-.56-1.3,2.52,2.52,0,0,0-1.62-.45h-1.9v3.51h1.9A2.49,2.49,0,0,0,203.84,261.69Z"/><path class="cls-12" d="M224.7,262.77v2.7h-1.1v-2.72l-3.1-5.09h1.19l2.5,4.12,2.51-4.12h1.1Z"/></g></g></svg>