<svg width="42" height="42" viewBox="0 0 42 42" 
    xmlns="http://www.w3.org/2000/svg">
    <path fill-rule="evenodd" clip-rule="evenodd" d="M41.1318 20.6464C41.2255 20.7402 41.2782 20.8674 41.2782 21C41.2782 21.1326 41.2255 21.2598 41.1318 21.3536L36.8891 25.5962C36.7953 25.69 36.6682 25.7426 36.5356 25.7426C36.4029 25.7426 36.2758 25.69 36.182 25.5962C36.0882 25.5024 36.0356 25.3753 36.0356 25.2426C36.0356 25.11 36.0882 24.9829 36.182 24.8891L39.5712 21.4999L1.22183 21.5006C1.15609 21.5006 1.09099 21.4877 1.03025 21.4625C0.969509 21.4374 0.91432 21.4005 0.867832 21.354C0.821344 21.3075 0.784467 21.2523 0.759308 21.1916C0.734149 21.1308 0.7212 21.0657 0.7212 21C0.7212 20.9343 0.734149 20.8692 0.759308 20.8084C0.784467 20.7477 0.821344 20.6925 0.867832 20.646C0.91432 20.5995 0.969509 20.5626 1.03025 20.5375C1.09099 20.5123 1.15609 20.4994 1.22183 20.4994L39.5712 20.5001L36.182 17.1109C36.0882 17.0171 36.0356 16.89 36.0356 16.7574C36.0356 16.6247 36.0882 16.4976 36.182 16.4038C36.2758 16.31 36.4029 16.2574 36.5356 16.2574C36.6682 16.2574 36.7953 16.31 36.8891 16.4038L41.1318 20.6464Z" fill="#5d6252"/>
</svg>
