<svg width="0" height="0" class="hidden">
  <symbol xmlns="http://www.w3.org/2000/svg" stroke-width="2" stroke-linecap="round" stroke-linejoin="round" viewBox="0 0 24 24" id="fav-filled">
    <path d="M20.84 4.61a5.5 5.5 0 0 0-7.78 0L12 5.67l-1.06-1.06a5.5 5.5 0 0 0-7.78 7.78l1.06 1.06L12 21.23l7.78-7.78 1.06-1.06a5.5 5.5 0 0 0 0-7.78z"></path>
  </symbol>
  <symbol xmlns="http://www.w3.org/2000/svg" fill="none"  stroke-width="2" stroke-linecap="round" stroke-linejoin="round" viewBox="0 0 24 24" id="fav">
    <path d="M20.84 4.61a5.5 5.5 0 0 0-7.78 0L12 5.67l-1.06-1.06a5.5 5.5 0 0 0-7.78 7.78l1.06 1.06L12 21.23l7.78-7.78 1.06-1.06a5.5 5.5 0 0 0 0-7.78z"></path>
  </symbol>
  <symbol xmlns="http://www.w3.org/2000/svg" fill="none"  stroke-width="2" stroke-linecap="round" stroke-linejoin="round" viewBox="0 0 24 24" id="user">
    <path d="M20 21v-2a4 4 0 0 0-4-4H8a4 4 0 0 0-4 4v2"></path>
    <circle cx="12" cy="7" r="4"></circle>
  </symbol>
  <symbol xmlns="http://www.w3.org/2000/svg" fill="none"  stroke-width="2" stroke-linecap="round" stroke-linejoin="round" viewBox="0 0 24 24" id="cart">
    <circle cx="9" cy="21" r="1"></circle>
    <circle cx="20" cy="21" r="1"></circle>
    <path d="M1 1h4l2.68 13.39a2 2 0 0 0 2 1.61h9.72a2 2 0 0 0 2-1.61L23 6H6"></path>
  </symbol>
    <symbol xmlns="http://www.w3.org/2000/svg" fill="none" stroke-width="0.5" stroke-linecap="round" stroke-linejoin="round" viewBox="0 0 24 24" id="arrow-right">
    <line x1="5" y1="12" x2="19" y2="12"></line>
    <polyline points="12 5 19 12 12 19"></polyline>
  </symbol>
    <symbol xmlns="http://www.w3.org/2000/svg" fill="none"  stroke-width="0.5" stroke-linecap="round" stroke-linejoin="round" viewBox="0 0 24 24" id="arrow-left">
    <line x1="19" y1="12" x2="5" y2="12"></line>
    <polyline points="12 19 5 12 12 5"></polyline>
  </symbol>
   <symbol xmlns="http://www.w3.org/2000/svg" fill="none"  stroke-width="2" stroke-linecap="round" stroke-linejoin="round" viewBox="0 0 24 24" id="facebook">
    <path d="M18 2h-3a5 5 0 0 0-5 5v3H7v4h3v8h4v-8h3l1-4h-4V7a1 1 0 0 1 1-1h3z"></path>
  </symbol>
  <symbol xmlns="http://www.w3.org/2000/svg" fill="none"  stroke-width="2" stroke-linecap="round" stroke-linejoin="round" viewBox="0 0 24 24" id="instagram">
    <rect x="2" y="2" width="20" height="20" rx="5" ry="5"></rect>
    <path d="M16 11.37A4 4 0 1 1 12.63 8 4 4 0 0 1 16 11.37z"></path>
    <line x1="17.5" y1="6.5" x2="17.51" y2="6.5"></line>
  </symbol>
  <symbol xmlns="http://www.w3.org/2000/svg" fill="none"  stroke-width="2" stroke-linecap="round" stroke-linejoin="round" viewBox="0 0 24 24" id="twitter">
    <path d="M23 3a10.9 10.9 0 0 1-3.14 1.53 4.48 4.48 0 0 0-7.86 3v1A10.66 10.66 0 0 1 3 4s-4 9 5 13a11.64 11.64 0 0 1-7 2c9 5 20 0 20-11.5a4.5 4.5 0 0 0-.08-.83A7.72 7.72 0 0 0 23 3z"></path>
  </symbol>
</svg>